# This file uses centimeters as units for non-parametric coordinates.

g default
v 0.855171 2.365694 -15.207353
v 1.055171 2.019284 -15.207353
v 1.455171 2.019284 -15.207353
v 1.655171 2.365694 -15.207353
v 1.455171 2.712105 -15.207353
v 1.055171 2.712105 -15.207353
v 0.855171 2.365694 15.193307
v 1.055171 2.019284 15.193307
v 1.455171 2.019284 15.193307
v 1.655171 2.365694 15.193307
v 1.455171 2.712105 15.193307
v 1.055171 2.712105 15.193307
v -2.560055 0.025854 2.500000
v -1.468345 0.025854 2.500000
v 1.428993 0.025854 2.500000
v 2.567258 0.025854 2.500000
v -2.560055 1.025854 2.500000
v -1.468345 1.025854 2.500000
v 1.428993 1.025854 2.500000
v 2.567258 1.025854 2.500000
v -2.560055 1.025854 1.500000
v -1.468345 1.025854 1.500000
v 1.428993 1.025854 1.500000
v 2.567258 1.025854 1.500000
v -2.560055 1.025854 0.500000
v -1.468345 1.025854 0.500000
v 1.428993 1.025854 0.500000
v 2.567258 1.025854 0.500000
v -2.560055 1.025854 -0.500000
v -1.468345 1.025854 -0.500000
v 1.428993 1.025854 -0.500000
v 2.567258 1.025854 -0.500000
v -2.560055 1.025854 -1.500000
v -1.468345 1.025854 -1.500000
v 1.428993 1.025854 -1.500000
v 2.567258 1.025854 -1.500000
v -2.560055 1.025854 -2.500000
v -1.468345 1.025854 -2.500000
v 1.428993 1.025854 -2.500000
v 2.567258 1.025854 -2.500000
v -2.560055 0.025854 -2.500000
v -1.468345 0.025854 -2.500000
v 1.428993 0.025854 -2.500000
v 2.567258 0.025854 -2.500000
v -2.560055 0.025854 -1.500000
v 2.567258 0.025854 -1.500000
v -2.560055 0.025854 -0.500000
v 2.567258 0.025854 -0.500000
v -2.560055 0.025854 0.500000
v 2.567258 0.025854 0.500000
v -2.560055 0.025854 1.500000
v 2.567258 0.025854 1.500000
v 0.641900 3.218458 1.500000
v 0.641900 3.218458 0.500000
v 0.641892 3.218455 -0.500000
v 0.641892 3.218455 -1.500000
v 2.182227 3.218458 1.500000
v 2.389856 2.876730 1.500000
v 2.182227 3.218458 0.500000
v 2.389856 2.876730 0.500000
v 2.182227 3.218455 -0.500000
v 2.389856 2.876726 -0.500000
v 2.182227 3.218455 -1.500000
v 2.389856 2.876726 -1.500000
v 0.855171 2.365694 -0.007023
v 1.055171 2.019284 -0.007023
v 1.455171 2.019284 -0.007023
v 1.655171 2.365694 -0.007023
v 1.455171 2.712105 -0.007023
v 1.055171 2.712105 -0.007023
vt 0.928213 0.006899
vt 0.961376 0.006899
vt 0.928213 0.995743
vt 0.961376 0.995743
vt 0.994538 0.006899
vt 0.795562 0.995743
vt 0.828725 0.006899
vt 0.828725 0.995743
vt 0.861888 0.006899
vt 0.861888 0.995743
vt 0.895050 0.006899
vt 0.895050 0.995743
vt 0.109378 0.599163
vt 0.109378 0.493626
vt 0.206341 0.599163
vt 0.206341 0.493626
vt 0.109378 0.213538
vt 0.206341 0.213538
vt 0.109378 0.103500
vt 0.206341 0.103500
vt 0.303012 0.599163
vt 0.303012 0.493626
vt 0.303012 0.213538
vt 0.303012 0.103500
vt 0.399683 0.599163
vt 0.399683 0.493626
vt 0.399683 0.213538
vt 0.399683 0.103500
vt 0.496354 0.599163
vt 0.496354 0.493626
vt 0.496354 0.213538
vt 0.496354 0.103500
vt 0.593025 0.599163
vt 0.593025 0.493626
vt 0.593025 0.213538
vt 0.593025 0.103500
vt 0.689696 0.599163
vt 0.689696 0.493626
vt 0.689696 0.213538
vt 0.689696 0.103500
vt 0.786075 0.599163
vt 0.786075 0.493626
vt 0.786075 0.213538
vt 0.786075 0.103500
vt 0.593025 0.006537
vt 0.689696 0.006537
vt 0.496354 0.006537
vt 0.399683 0.006537
vt 0.303012 0.006537
vt 0.206341 0.006537
vt 0.689696 0.695542
vt 0.593025 0.695542
vt 0.496354 0.695542
vt 0.399683 0.695542
vt 0.303012 0.695542
vt 0.206341 0.695542
vt 0.392363 0.898960
vt 0.392362 0.993997
vt 0.245973 0.898960
vt 0.245973 0.993997
vt 0.368298 0.878448
vt 0.096332 0.878448
vt 0.172588 0.676959
vt 0.007595 0.711405
vt 0.027686 0.676959
vt 0.207972 0.898960
vt 0.207972 0.993997
vt 0.009779 0.898960
vt 0.009779 0.993997
vt 0.368298 0.878448
vt 0.172588 0.676959
vt 0.096332 0.878448
vt 0.007595 0.711405
vt 0.027686 0.676959
vt 0.681573 0.898960
vt 0.681573 0.993997
vt 0.392363 0.898960
vt 0.392362 0.993997
vt 0.245973 0.898960
vt 0.245973 0.993997
vt 0.368298 0.878448
vt 0.096332 0.878448
vt 0.172588 0.676959
vt 0.007595 0.711405
vt 0.027686 0.676959
vt 0.207972 0.898960
vt 0.207972 0.993997
vt 0.009779 0.898960
vt 0.009779 0.993997
vt 0.368298 0.878448
vt 0.172588 0.676959
vt 0.096332 0.878448
vt 0.007595 0.711405
vt 0.027686 0.676959
vt 0.681573 0.898960
vt 0.681573 0.993997
vt 0.795562 0.006899
vt 0.994538 0.995743
vt 0.928213 0.006899
vt 0.961376 0.995743
vt 0.994538 0.995743
vt 0.795562 0.995743
vt 0.828725 0.995743
vt 0.861888 0.995743
vt 0.895050 0.995743
vt 0.895050 0.006899
vt 0.928213 0.995743
vt 0.861888 0.006899
vt 0.828725 0.006899
vt 0.994538 0.006899
vt 0.795562 0.006899
vt 0.961376 0.006899
vn -0.866026 -0.500000 0.000000
vn -0.866025 -0.500000 0.000000
vn -0.866026 -0.500000 0.000000
vn -0.866025 -0.500000 0.000000
vn 0.000000 -1.000000 0.000000
vn 0.000000 -1.000000 0.000000
vn 0.000000 -1.000000 0.000000
vn 0.000000 -1.000000 0.000000
vn 0.866026 -0.500000 0.000000
vn 0.866025 -0.500000 0.000000
vn 0.866026 -0.500000 0.000000
vn 0.866026 -0.500000 0.000000
vn 0.866026 0.499999 0.000000
vn 0.866026 0.499999 0.000000
vn 0.866026 0.499999 0.000000
vn 0.866026 0.499999 0.000000
vn 0.000000 1.000000 0.000000
vn 0.000000 1.000000 0.000000
vn 0.000000 1.000000 0.000000
vn 0.000000 1.000000 0.000000
vn -0.866025 0.500000 0.000000
vn -0.866025 0.500000 0.000000
vn -0.866025 0.500000 0.000000
vn -0.866026 0.500000 0.000000
vn 0.000000 0.000000 1.000000
vn 0.000000 0.000000 1.000000
vn 0.000000 0.000000 1.000000
vn 0.000000 0.000000 1.000000
vn 0.000000 0.000000 1.000000
vn 0.000000 0.000000 1.000000
vn 0.000000 0.000000 1.000000
vn 0.000000 0.000000 1.000000
vn 0.000000 1.000000 0.000000
vn 0.000000 1.000000 0.000000
vn 0.000000 1.000000 0.000000
vn 0.000000 1.000000 0.000000
vn 0.000000 1.000000 0.000000
vn 0.000000 1.000000 0.000000
vn 0.000000 1.000000 0.000000
vn 0.000000 1.000000 0.000000
vn 0.000000 1.000000 0.000000
vn 0.000000 1.000000 0.000000
vn 0.000000 1.000000 0.000000
vn 0.000000 1.000000 0.000000
vn 0.000000 1.000000 0.000000
vn 0.000000 1.000000 0.000000
vn 0.000000 1.000000 0.000000
vn 0.000000 1.000000 0.000000
vn 0.000000 1.000000 0.000000
vn 0.000000 1.000000 0.000000
vn 0.000000 1.000000 0.000000
vn 0.000000 1.000000 0.000000
vn 0.000000 1.000000 0.000000
vn 0.000000 1.000000 0.000000
vn 0.000000 1.000000 0.000000
vn 0.000000 1.000000 0.000000
vn 0.000000 0.000000 -1.000000
vn 0.000000 0.000000 -1.000000
vn 0.000000 0.000000 -1.000000
vn 0.000000 0.000000 -1.000000
vn 0.000000 0.000000 -1.000000
vn 0.000000 0.000000 -1.000000
vn 0.000000 0.000000 -1.000000
vn 0.000000 0.000000 -1.000000
vn 1.000000 0.000000 0.000000
vn 1.000000 0.000000 0.000000
vn 1.000000 0.000000 0.000000
vn 1.000000 0.000000 0.000000
vn 1.000000 0.000000 0.000000
vn 1.000000 0.000000 0.000000
vn 1.000000 0.000000 0.000000
vn 1.000000 0.000000 0.000000
vn 1.000000 0.000000 0.000000
vn 1.000000 0.000000 0.000000
vn 1.000000 0.000000 0.000000
vn 1.000000 0.000000 0.000000
vn -1.000000 0.000000 0.000000
vn -1.000000 0.000000 0.000000
vn -1.000000 0.000000 0.000000
vn -1.000000 0.000000 0.000000
vn -1.000000 0.000000 0.000000
vn -1.000000 0.000000 0.000000
vn -1.000000 0.000000 0.000000
vn -1.000000 0.000000 0.000000
vn -1.000000 0.000000 0.000000
vn -1.000000 0.000000 0.000000
vn -1.000000 0.000000 0.000000
vn -1.000000 0.000000 0.000000
vn 0.000000 1.000000 0.000000
vn 0.000000 1.000000 0.000000
vn 0.000000 1.000000 0.000000
vn 0.000000 1.000000 0.000000
vn 0.000000 0.000000 1.000000
vn -0.000000 0.000000 1.000000
vn -0.000000 0.000000 1.000000
vn -0.000000 0.000000 1.000000
vn 0.000000 0.000000 1.000000
vn 0.887529 -0.460752 0.000000
vn 0.887529 -0.460752 0.000000
vn 0.887529 -0.460752 0.000000
vn 0.887529 -0.460751 0.000000
vn 0.000000 0.000000 -1.000000
vn 0.000000 0.000000 -1.000000
vn 0.000000 0.000000 -1.000000
vn 0.000000 0.000000 -1.000000
vn 0.000000 0.000000 -1.000000
vn -0.720509 0.693445 0.000000
vn -0.720509 0.693445 0.000000
vn -0.720509 0.693445 0.000000
vn -0.720509 0.693445 0.000000
vn 0.000000 1.000000 0.000000
vn 0.000000 1.000000 0.000000
vn 0.000000 1.000000 0.000000
vn 0.000000 1.000000 0.000000
vn 0.000000 0.000000 1.000000
vn 0.000000 0.000000 1.000000
vn 0.000000 0.000000 1.000000
vn 0.000000 0.000000 1.000000
vn 0.000000 0.000000 1.000000
vn 0.887529 -0.460752 0.000000
vn 0.887529 -0.460752 0.000000
vn 0.887529 -0.460752 0.000000
vn 0.887529 -0.460752 0.000000
vn 0.000000 0.000000 -1.000000
vn 0.000000 0.000000 -1.000000
vn 0.000000 0.000000 -1.000000
vn 0.000000 0.000000 -1.000000
vn 0.000000 0.000000 -1.000000
vn -0.720510 0.693445 0.000000
vn -0.720510 0.693444 0.000000
vn -0.720510 0.693444 0.000000
vn -0.720510 0.693445 0.000000
vn 0.854620 0.519254 0.000000
vn 0.854620 0.519254 0.000000
vn 0.854620 0.519254 0.000000
vn 0.854620 0.519254 0.000000
vn 0.854620 0.519254 0.000000
vn 0.854620 0.519254 0.000000
vn 0.854620 0.519254 0.000000
vn 0.854620 0.519254 0.000000
vn -0.866026 -0.500000 0.000000
vn -0.866026 -0.500000 0.000000
vn 0.000000 -1.000000 0.000000
vn 0.000000 -1.000000 0.000000
vn 0.866026 -0.500000 0.000000
vn 0.866026 -0.500000 0.000000
vn 0.866026 0.499999 0.000000
vn 0.866026 0.499999 0.000000
vn 0.000000 1.000000 0.000000
vn 0.000000 1.000000 0.000000
vn -0.866025 0.500000 0.000000
vn -0.866025 0.500000 0.000000
s 1
g initialShadingGroup polySurface5
f 7/3/1 65/99/2 8/4/3
f 8/4/3 65/99/2 66/112/4
s 2
f 8/4/5 66/112/6 9/98/7
f 9/98/7 66/112/6 67/110/8
s 3
f 9/6/9 67/111/10 10/8/11
f 10/8/11 67/111/10 68/109/12
s 4
f 10/8/13 68/109/14 11/10/15
f 11/10/15 68/109/14 69/108/16
s 5
f 11/10/17 69/108/18 12/12/19
f 12/12/19 69/108/18 70/106/20
s 6
f 12/12/21 70/106/22 7/3/23
f 7/3/23 70/106/22 65/99/24
s 7
f 13/13/25 14/14/26 17/15/27
f 17/15/27 14/14/26 18/16/28
f 14/14/26 15/17/29 18/16/28
f 18/16/28 15/17/29 19/18/30
f 15/17/29 16/19/31 19/18/30
f 19/18/30 16/19/31 20/20/32
s 8
f 17/15/33 18/16/34 21/21/35
f 21/21/35 18/16/34 22/22/36
f 18/16/34 19/18/37 22/22/36
f 22/22/36 19/18/37 23/23/38
f 19/18/37 20/20/39 23/23/38
f 23/23/38 20/20/39 24/24/40
f 21/21/35 22/22/36 25/25/41
f 25/25/41 22/22/36 26/26/42
f 23/23/38 24/24/40 27/27/43
f 27/27/43 24/24/40 28/28/44
f 25/25/41 26/26/42 29/29/45
f 29/29/45 26/26/42 30/30/46
f 26/26/42 27/27/43 30/30/46
f 30/30/46 27/27/43 31/31/47
f 27/27/43 28/28/44 31/31/47
f 31/31/47 28/28/44 32/32/48
f 29/29/45 30/30/46 33/33/49
f 33/33/49 30/30/46 34/34/50
f 31/31/47 32/32/48 35/35/51
f 35/35/51 32/32/48 36/36/52
f 33/33/49 34/34/50 37/37/53
f 37/37/53 34/34/50 38/38/54
f 34/34/50 35/35/51 38/38/54
f 38/38/54 35/35/51 39/39/55
f 35/35/51 36/36/52 39/39/55
f 39/39/55 36/36/52 40/40/56
s 9
f 37/37/57 38/38/58 41/41/59
f 41/41/59 38/38/58 42/42/60
f 38/38/58 39/39/61 42/42/60
f 42/42/60 39/39/61 43/43/62
f 39/39/61 40/40/63 43/43/62
f 43/43/62 40/40/63 44/44/64
s 10
f 46/45/65 44/46/66 36/36/67
f 36/36/67 44/46/66 40/40/68
f 48/47/69 46/45/65 32/32/70
f 32/32/70 46/45/65 36/36/67
f 50/48/71 48/47/69 28/28/72
f 28/28/72 48/47/69 32/32/70
f 52/49/73 50/48/71 24/24/74
f 24/24/74 50/48/71 28/28/72
f 16/50/75 52/49/73 20/20/76
f 20/20/76 52/49/73 24/24/74
s 11
f 41/51/77 45/52/78 37/37/79
f 37/37/79 45/52/78 33/33/80
f 45/52/78 47/53/81 33/33/80
f 33/33/80 47/53/81 29/29/82
f 47/53/81 49/54/83 29/29/82
f 29/29/82 49/54/83 25/25/84
f 49/54/83 51/55/85 25/25/84
f 25/25/84 51/55/85 21/21/86
f 51/55/85 13/56/87 21/21/86
f 21/21/86 13/56/87 17/15/88
s 12
g polySurface5
f 54/57/89 53/58/90 59/59/91
f 59/59/91 53/58/90 57/60/92
s 13
f 22/61/93 23/62/94 53/63/95
f 23/62/94 58/64/96 53/63/95
f 53/63/95 58/64/96 57/65/97
s 14
f 60/66/98 58/67/99 27/68/100
f 27/68/100 58/67/99 23/69/101
s 15
f 26/70/102 54/71/103 27/72/104
f 27/72/104 54/71/103 60/73/105
f 60/73/105 54/71/103 59/74/106
s 16
f 26/75/107 22/76/108 54/57/109
f 54/57/109 22/76/108 53/58/110
s 17
f 56/77/111 55/78/112 63/79/113
f 63/79/113 55/78/112 61/80/114
s 18
f 30/81/115 31/82/116 55/83/117
f 31/82/116 62/84/118 55/83/117
f 55/83/117 62/84/118 61/85/119
s 19
f 64/86/120 62/87/121 35/88/122
f 35/88/122 62/87/121 31/89/123
s 20
f 34/90/124 56/91/125 35/92/126
f 35/92/126 56/91/125 64/93/127
f 64/93/127 56/91/125 63/94/128
s 21
f 34/95/129 30/96/130 56/77/131
f 56/77/131 30/96/130 55/78/132
s 22
f 57/60/133 58/67/134 59/59/135
f 59/59/135 58/67/134 60/66/136
s 23
f 61/80/137 62/87/138 63/79/139
f 63/79/139 62/87/138 64/86/140
s 1
g initialShadingGroup polySurface5
f 66/100/4 65/107/2 2/2/141
f 2/2/141 65/107/2 1/1/142
s 2
f 67/101/8 66/100/6 3/5/143
f 3/5/143 66/100/6 2/2/144
s 3
f 68/103/12 67/102/10 4/7/145
f 4/7/145 67/102/10 3/97/146
s 4
f 69/104/16 68/103/14 5/9/147
f 5/9/147 68/103/14 4/7/148
s 5
f 70/105/20 69/104/18 6/11/149
f 6/11/149 69/104/18 5/9/150
s 6
f 65/107/24 70/105/22 1/1/151
f 1/1/151 70/105/22 6/11/152
